nColumns=28
nRows=40
DataType=double
version=3
OpenSimVersion=4.1
endheader
time	ground_force_1_vx	ground_force_1_vy	ground_force_1_vz	ground_force_1_px	ground_force_1_py	ground_force_1_pz	ground_force_1_mx	ground_force_1_my	ground_force_1_mz	ground_force_2_vx	ground_force_2_vy	ground_force_2_vz	ground_force_2_px	ground_force_2_py	ground_force_2_pz	ground_force_2_mx	ground_force_2_my	ground_force_2_mz	ground_force_3_vx	ground_force_3_vy	ground_force_3_vz	ground_force_3_px	ground_force_3_py	ground_force_3_pz	ground_force_3_mx	ground_force_3_my	ground_force_3_mz
6.56	-7.3982	482.097	-43.2553	-0.253103	0.006	-0.408738	0	-13.4966	0	16.2712	361.85	37.4233	-0.223462	0.006	-0.862204	0	9.83332	0	0	0	0	0	0	0	0	0	0
6.57	-6.66825	488.226	-44.1719	-0.25361	0.006	-0.408876	0	-13.3414	0	16.0694	361.474	37.1063	-0.224105	0.006	-0.862209	0	9.6912	0	0	0	0	0	0	0	0	0	0
6.58	-6.0367	495.14	-45.2721	-0.253902	0.006	-0.40893	0	-13.1904	0	15.8671	361.808	36.8941	-0.224668	0.006	-0.862257	0	9.5412	0	0	0	0	0	0	0	0	0	0
6.59	-5.50579	502.762	-46.5376	-0.253977	0.006	-0.408903	0	-13.0422	0	15.6681	362.901	36.8043	-0.225145	0.006	-0.862354	0	9.38353	0	0	0	0	0	0	0	0	0	0
6.6	-5.0694	510.997	-47.9419	-0.253842	0.006	-0.408803	0	-12.895	0	15.4706	364.789	36.8549	-0.225529	0.006	-0.862504	0	9.21767	0	0	0	0	0	0	0	0	0	0
6.61	-4.71662	519.74	-49.4529	-0.253506	0.006	-0.408639	0	-12.7462	0	15.2663	367.49	37.0618	-0.225808	0.006	-0.86271	0	9.04228	0	0	0	0	0	0	0	0	0	0
6.62	-4.43802	528.877	-51.0341	-0.252985	0.006	-0.408422	0	-12.5929	0	15.0399	370.995	37.4381	-0.225969	0.006	-0.862979	0	8.85518	0	0	0	0	0	0	0	0	0	0
6.63	-4.22742	538.275	-52.6459	-0.252299	0.006	-0.408165	0	-12.4316	0	14.7709	375.265	37.9919	-0.226002	0.006	-0.863312	0	8.65368	0	0	0	0	0	0	0	0	0	0
6.64	-4.07772	547.789	-54.2466	-0.251474	0.006	-0.407882	0	-12.259	0	14.4352	380.227	38.7256	-0.225894	0.006	-0.863712	0	8.43485	0	0	0	0	0	0	0	0	0	0
6.65	-3.9759	557.259	-55.794	-0.250543	0.006	-0.407586	0	-12.0717	0	14.007	385.768	39.633	-0.225639	0.006	-0.864175	0	8.19603	0	0	0	0	0	0	0	0	0	0
6.66	-3.90201	566.507	-57.2485	-0.249545	0.006	-0.407292	0	-11.867	0	13.4611	391.732	40.6985	-0.225237	0.006	-0.864699	0	7.93518	0	0	0	0	0	0	0	0	0	0
6.67	-3.83436	575.332	-58.5752	-0.248517	0.006	-0.407013	0	-11.6421	0	12.7761	397.922	41.8964	-0.224691	0.006	-0.865273	0	7.65115	0	0	0	0	0	0	0	0	0	0
6.68	-3.75938	583.506	-59.7448	-0.247492	0.006	-0.406758	0	-11.3947	0	11.9397	404.115	43.1906	-0.224015	0.006	-0.865886	0	7.34387	0	0	0	0	0	0	0	0	0	0
6.69	-3.67631	590.786	-60.7339	-0.246493	0.006	-0.406534	0	-11.1231	0	10.9525	410.07	44.5359	-0.22323	0.006	-0.866521	0	7.01427	0	0	0	0	0	0	0	0	0	0
6.7	-3.59214	596.929	-61.526	-0.245537	0.006	-0.406344	0	-10.8262	0	9.82845	415.547	45.8819	-0.222361	0.006	-0.867163	0	6.66401	0	0	0	0	0	0	0	0	0	0
6.71	-3.51401	601.72	-62.1118	-0.244636	0.006	-0.406187	0	-10.5041	0	8.59287	420.321	47.1793	-0.221435	0.006	-0.867796	0	6.29532	0	0	0	0	0	0	0	0	0	0
6.72	-3.44482	604.987	-62.4901	-0.243799	0.006	-0.406064	0	-10.1579	0	7.27886	424.195	48.3829	-0.22048	0.006	-0.868411	0	5.91096	0	0	0	0	0	0	0	0	0	0
6.73	-3.3827	606.611	-62.6674	-0.243034	0.006	-0.405972	0	-9.78993	0	5.92377	427.013	49.4561	-0.219517	0.006	-0.868996	0	5.5141	0	0	0	0	0	0	0	0	0	0
6.74	-3.32292	606.53	-62.6563	-0.242346	0.006	-0.405908	0	-9.40348	0	4.56668	428.675	50.3734	-0.218565	0.006	-0.869548	0	5.10841	0	0	0	0	0	0	0	0	0	0
6.75	-3.26	604.741	-62.4751	-0.241736	0.006	-0.405866	0	-9.00249	0	3.24605	429.142	51.1213	-0.217642	0.006	-0.870063	0	4.69794	0	0	0	0	0	0	0	0	0	0
6.76	-3.1866	601.297	-62.1465	-0.241204	0.006	-0.40584	0	-8.5914	0	1.9964	428.434	51.6986	-0.216761	0.006	-0.870539	0	4.28716	0	0	0	0	0	0	0	0	0	0
6.77	-3.0923	596.313	-61.6981	-0.240753	0.006	-0.405827	0	-8.17499	0	0.845678	426.624	52.115	-0.215936	0.006	-0.870976	0	3.88096	0	0	0	0	0	0	0	0	0	0
6.78	-2.96643	589.96	-61.1634	-0.240382	0.006	-0.405819	0	-7.75805	0	-0.185079	423.824	52.3897	-0.215179	0.006	-0.871375	0	3.48427	0	0	0	0	0	0	0	0	0	0
6.79	-2.80079	582.452	-60.58	-0.240093	0.006	-0.405812	0	-7.34505	0	-1.08105	420.178	52.5481	-0.214501	0.006	-0.871737	0	3.10176	0	0	0	0	0	0	0	0	0	0
6.8	-2.5902	574.031	-59.9859	-0.239887	0.006	-0.405801	0	-6.94002	0	-1.83185	415.847	52.6162	-0.213914	0.006	-0.872063	0	2.73768	0	0	0	0	0	0	0	0	0	0
6.81	-2.33338	564.95	-59.4162	-0.239766	0.006	-0.405781	0	-6.54643	0	-2.43074	410.994	52.6162	-0.21343	0.006	-0.87235	0	2.39567	0	0	0	0	0	0	0	0	0	0
6.82	-2.03408	555.448	-58.9	-0.239731	0.006	-0.405751	0	-6.16692	0	-2.87631	405.778	52.5638	-0.213062	0.006	-0.872597	0	2.07868	0	0	0	0	0	0	0	0	0	0
6.83	-1.69952	545.737	-58.4584	-0.239781	0.006	-0.405706	0	-5.80336	0	-3.17336	400.341	52.4692	-0.21282	0.006	-0.872798	0	1.78893	0	0	0	0	0	0	0	0	0	0
6.84	-1.33818	535.999	-58.1034	-0.239914	0.006	-0.405646	0	-5.45681	0	-3.33252	394.816	52.339	-0.212716	0.006	-0.87295	0	1.52775	0	0	0	0	0	0	0	0	0	0
6.85	-0.960749	526.377	-57.8387	-0.240128	0.006	-0.405573	0	-5.12772	0	-3.36992	389.328	52.1795	-0.212758	0.006	-0.873046	0	1.29562	0	0	0	0	0	0	0	0	0	0
6.86	-0.579533	516.987	-57.6606	-0.240418	0.006	-0.405487	0	-4.81623	0	-3.30548	383.991	51.9973	-0.212954	0.006	-0.873079	0	1.09225	0	0	0	0	0	0	0	0	0	0
6.87	-0.205915	507.91	-57.5579	-0.24078	0.006	-0.405394	0	-4.52225	0	-3.16027	378.91	51.8	-0.213311	0.006	-0.873045	0	0.916588	0	0	0	0	0	0	0	0	0	0
6.88	0.149928	499.192	-57.5137	-0.24121	0.006	-0.405297	0	-4.24549	0	-2.95416	374.171	51.595	-0.213831	0.006	-0.872938	0	0.766874	0	0	0	0	0	0	0	0	0	0
6.89	0.478412	490.84	-57.5062	-0.241701	0.006	-0.405202	0	-3.98552	0	-2.70453	369.837	51.3887	-0.214514	0.006	-0.872754	0	0.64082	0	0	0	0	0	0	0	0	0	0
6.9	0.769269	482.819	-57.5101	-0.242248	0.006	-0.405117	0	-3.7416	0	-2.4263	365.945	51.1865	-0.215358	0.006	-0.872493	0	0.535757	0	0	0	0	0	0	0	0	0	0
6.91	1.01038	475.057	-57.4979	-0.242841	0.006	-0.405047	0	-3.51252	0	-2.13261	362.503	50.9923	-0.216356	0.006	-0.872154	0	0.448832	0	0	0	0	0	0	0	0	0	0
6.92	1.18889	467.458	-57.4424	-0.243471	0.006	-0.404997	0	-3.29649	0	-1.83556	359.497	50.809	-0.217498	0.006	-0.871741	0	0.37708	0	0	0	0	0	0	0	0	0	0
6.93	1.29321	459.911	-57.318	-0.244127	0.006	-0.404972	0	-3.09118	0	-1.54574	356.897	50.6377	-0.21877	0.006	-0.871256	0	0.317547	0	0	0	0	0	0	0	0	0	0
6.94	1.31474	452.3	-57.1036	-0.2448	0.006	-0.404973	0	-2.89395	0	-1.27155	354.667	50.4783	-0.220158	0.006	-0.870705	0	0.267361	0	0	0	0	0	0	0	0	0	0
6.95	1.25045	444.522	-56.7835	-0.245482	0.006	-0.405002	0	-2.70213	0	-1.01912	352.763	50.3291	-0.221645	0.006	-0.870091	0	0.223865	0	0	0	0	0	0	0	0	0	0
